# Blender v2.83.1 OBJ File: 'house1.blend'
# www.blender.org
mtllib house1.mtl
o Wall_4_Cube.003
v 16.175003 23.085096 -17.090893
v 16.175003 -3.249329 -17.090893
v 16.175003 23.085096 18.422318
v 16.175003 -3.249329 18.422318
v 16.623463 23.085096 -17.090893
v 16.623463 -3.249329 -17.090893
v 16.623463 23.085096 18.422318
v 16.623463 -3.249329 18.422318
vt 0.192265 0.288537
vt 0.000082 0.774075
vt 0.344958 0.999918
vt 0.390103 0.585480
vt 0.375000 0.750000
vt 0.375000 1.000000
vt 0.625000 1.000000
vt 0.625000 0.750000
vt 0.666223 0.999918
vt 0.666223 0.517719
vt 0.125000 0.500000
vt 0.125000 0.750000
vt 0.375000 0.500000
vt 0.625000 0.500000
vt 0.515755 0.000082
vn 0.0000 1.0000 0.0000
vn 0.0000 0.0000 1.0000
vn 1.0000 0.0000 0.0000
vn 0.0000 -1.0000 0.0000
vn -1.0000 0.0000 0.0000
vn 0.0000 0.0000 -1.0000
usemtl Material
s off
f 1/1/1 3/2/1 7/3/1 5/4/1
f 4/5/2 8/6/2 7/7/2 3/8/2
f 8/9/3 6/10/3 5/4/3 7/3/3
f 6/11/4 8/12/4 4/5/4 2/13/4
f 2/13/5 4/5/5 3/8/5 1/14/5
f 6/10/6 2/15/6 1/1/6 5/4/6
o Wall_3_Cube
v -4.300822 23.085876 -17.083706
v -4.300822 -3.248548 -17.083706
v -4.300822 23.085876 18.429504
v -4.300822 -3.248548 18.429504
v -3.852362 23.085876 -17.083706
v -3.852362 -3.248548 -17.083706
v -3.852362 23.085876 18.429504
v -3.852362 -3.248548 18.429504
vt 0.625000 0.500000
vt 0.625000 0.750000
vt 0.875000 0.750000
vt 0.875000 0.500000
vt 0.375000 0.750000
vt 0.375000 1.000000
vt 0.625000 1.000000
vt 0.375000 0.000000
vt 0.375000 0.250000
vt 0.625000 0.250000
vt 0.625000 0.000000
vt 0.125000 0.500000
vt 0.125000 0.750000
vt 0.375000 0.500000
vt 0.000503 0.999615
vt 0.000100 0.999615
vt 0.000100 0.999900
vt 0.000503 0.999900
vn 0.0000 1.0000 0.0000
vn 0.0000 0.0000 1.0000
vn 1.0000 0.0000 0.0000
vn 0.0000 -1.0000 0.0000
vn -1.0000 0.0000 0.0000
vn 0.0000 0.0000 -1.0000
usemtl Material
s off
f 9/16/7 11/17/7 15/18/7 13/19/7
f 12/20/8 16/21/8 15/22/8 11/17/8
f 16/23/9 14/24/9 13/25/9 15/26/9
f 14/27/10 16/28/10 12/20/10 10/29/10
f 10/29/11 12/20/11 11/17/11 9/16/11
f 14/30/12 10/31/12 9/32/12 13/33/12
o Wall_2_Plane.002
v -4.105375 -4.012587 -16.846886
v 16.630894 -4.012587 -16.846886
v -4.105375 23.083618 -17.132462
v 16.630894 23.083618 -17.132462
vt 0.999415 0.999415
vt 0.000100 0.999415
vt 0.000100 0.000100
vt 0.999415 0.000100
vn 0.0000 0.0105 0.9999
usemtl Material
s off
f 17/34/13 18/35/13 20/36/13 19/37/13
o Wall_1_Plane.001
v -4.105375 -4.012587 18.652405
v 16.630894 -4.012587 18.652405
v -4.105375 23.083618 18.366829
v 16.630894 23.083618 18.366829
vt 0.666928 0.333500
vt 0.666928 0.333634
vt 0.666833 0.333634
vt 0.666833 0.333500
vn 0.0000 0.0105 0.9999
usemtl Material
s off
f 21/38/14 22/39/14 24/40/14 23/41/14
o Roof_2_Plane.005
v -4.251091 30.795300 -9.569502
v 16.578657 30.795300 -9.569502
v -4.251091 23.054440 -17.096106
v 16.578657 23.054440 -17.096106
vt 0.666500 0.666500
vt 0.333500 0.666500
vt 0.333500 0.333500
vt 0.666500 0.333500
vn 0.0000 0.6971 -0.7170
usemtl Roof
s off
f 25/42/15 26/43/15 28/44/15 27/45/15
o Roof_1_Plane.006
v 16.569229 30.795298 10.764866
v -4.260454 30.795301 10.816872
v 16.588020 23.054438 18.291447
v -4.241663 23.054441 18.343452
vt 0.999834 0.333167
vt 0.666833 0.333167
vt 0.666833 0.000167
vt 0.999834 0.000167
vn 0.0018 0.6971 0.7170
usemtl Roof
s off
f 29/46/16 30/47/16 32/48/16 31/49/16
o Plane_Plane.007
v -4.288692 30.820534 10.952868
v 16.645760 30.820534 10.952868
v -4.288692 30.820534 -9.651248
v 16.645760 30.820534 -9.651248
vt 0.999916 0.707122
vt 0.000084 0.707122
vt 0.000084 0.000084
vt 0.999916 0.000084
vn 0.0000 1.0000 0.0000
usemtl Roof
s off
f 33/50/17 34/51/17 36/52/17 35/53/17
o Plane.001_Plane.016
v 16.504276 30.849400 -9.601482
v 16.498304 30.849400 10.968374
v 16.463625 20.291340 -9.601494
v 16.457653 20.291340 10.968363
vt 0.333167 0.666500
vt 0.000167 0.666500
vt 0.000167 0.333500
vt 0.333167 0.333500
vn 1.0000 -0.0039 0.0003
usemtl None
s off
f 37/54/18 38/55/18 40/56/18 39/57/18
o Plane.002_Plane.018
v 16.485914 30.849438 -9.601487
v 16.507072 23.091209 -17.059320
v 16.482119 20.291302 -9.601489
v 16.476015 20.291302 10.968368
vt 0.000000 0.000000
vt 1.000000 0.000000
vt 1.000000 1.000000
vt 0.000000 1.000000
vn -0.9997 -0.0208 -0.0111
usemtl None
s off
f 41/58/19 42/59/19 44/60/19 43/61/19
o Plane.004_Plane.020
v 16.476017 30.849438 10.968368
v 16.454861 23.091209 18.426199
v 16.479813 20.291302 10.968369
v 16.485912 20.291302 -9.601487
vt 0.000000 0.000000
vt 1.000000 0.000000
vt 1.000000 1.000000
vt 0.000000 1.000000
vn 0.9997 -0.0208 0.0111
usemtl None
s off
f 45/62/20 46/63/20 48/64/20 47/65/20
o Plane.006_Plane.026
v -4.196707 30.849400 -9.601482
v -4.202679 30.849400 10.968374
v -4.237358 20.291340 -9.601494
v -4.243330 20.291340 10.968363
vt 0.333167 0.333167
vt 0.000167 0.333167
vt 0.000167 0.000167
vt 0.333167 0.000167
vn 1.0000 -0.0039 0.0003
usemtl None
s off
f 49/66/21 50/67/21 52/68/21 51/69/21
o Plane.005_Plane.025
v -4.215069 30.849438 -9.601487
v -4.193911 23.091209 -17.059320
v -4.218864 20.291302 -9.601489
v -4.224968 20.291302 10.968368
vt 0.000000 0.000000
vt 1.000000 0.000000
vt 1.000000 1.000000
vt 0.000000 1.000000
vn -0.9997 -0.0208 -0.0111
usemtl None
s off
f 53/70/22 54/71/22 56/72/22 55/73/22
o Plane.003_Plane.024
v -4.224967 30.849438 10.968368
v -4.246123 23.091209 18.426199
v -4.221171 20.291302 10.968369
v -4.215070 20.291302 -9.601487
vt 0.000000 0.000000
vt 1.000000 0.000000
vt 1.000000 1.000000
vt 0.000000 1.000000
vn 0.9997 -0.0208 0.0111
usemtl None
s off
f 57/74/23 58/75/23 60/76/23 59/77/23
