# Blender v2.83.1 OBJ File: 'house1.blend'
# www.blender.org
mtllib house2.mtl
o Wall_4_Cube.003
v 16.175003 23.085096 -17.090893
v 16.175003 -3.249329 -17.090893
v 16.175003 23.085096 18.422318
v 16.175003 -3.249329 18.422318
v 16.623463 23.085096 -17.090893
v 16.623463 -3.249329 -17.090893
v 16.623463 23.085096 18.422318
v 16.623463 -3.249329 18.422318
vt 0.625000 0.500000
vt 0.625000 0.750000
vt 0.875000 0.750000
vt 0.875000 0.500000
vt 0.375000 0.750000
vt 0.375000 1.000000
vt 0.625000 1.000000
vt 0.375000 0.000000
vt 0.375000 0.250000
vt 0.625000 0.250000
vt 0.625000 0.000000
vt 0.125000 0.500000
vt 0.125000 0.750000
vt 0.375000 0.500000
vn 0.0000 1.0000 0.0000
vn 0.0000 0.0000 1.0000
vn 1.0000 0.0000 0.0000
vn 0.0000 -1.0000 0.0000
vn -1.0000 0.0000 0.0000
vn 0.0000 0.0000 -1.0000
g Wall_4_Cube.003_Material
usemtl Material
s off
f 1/1/1 3/2/1 7/3/1 5/4/1
f 4/5/2 8/6/2 7/7/2 3/2/2
f 8/8/3 6/9/3 5/10/3 7/11/3
f 6/12/4 8/13/4 4/5/4 2/14/4
f 2/14/5 4/5/5 3/2/5 1/1/5
f 6/9/6 2/14/6 1/1/6 5/10/6
o Wall_3_Cube
v -4.300822 23.085876 -17.083706
v -4.300822 -3.248548 -17.083706
v -4.300822 23.085876 18.429504
v -4.300822 -3.248548 18.429504
v -3.852362 23.085876 -17.083706
v -3.852362 -3.248548 -17.083706
v -3.852362 23.085876 18.429504
v -3.852362 -3.248548 18.429504
vt 0.625000 0.500000
vt 0.625000 0.750000
vt 0.875000 0.750000
vt 0.875000 0.500000
vt 0.375000 0.750000
vt 0.375000 1.000000
vt 0.625000 1.000000
vt 0.375000 0.000000
vt 0.375000 0.250000
vt 0.625000 0.250000
vt 0.625000 0.000000
vt 0.125000 0.500000
vt 0.125000 0.750000
vt 0.375000 0.500000
vn 0.0000 1.0000 0.0000
vn 0.0000 0.0000 1.0000
vn 1.0000 0.0000 0.0000
vn 0.0000 -1.0000 0.0000
vn -1.0000 0.0000 0.0000
vn 0.0000 0.0000 -1.0000
g Wall_3_Cube_Material
usemtl Material
s off
f 9/15/7 11/16/7 15/17/7 13/18/7
f 12/19/8 16/20/8 15/21/8 11/16/8
f 16/22/9 14/23/9 13/24/9 15/25/9
f 14/26/10 16/27/10 12/19/10 10/28/10
f 10/28/11 12/19/11 11/16/11 9/15/11
f 14/23/12 10/28/12 9/15/12 13/24/12
o Wall_2_Plane.002
v -4.105375 -4.012587 -16.846886
v 16.630894 -4.012587 -16.846886
v -4.105375 23.083618 -17.132462
v 16.630894 23.083618 -17.132462
vt 0.000000 0.000000
vt 1.000000 0.000000
vt 1.000000 1.000000
vt 0.000000 1.000000
vn 0.0000 0.0105 0.9999
g Wall_2_Plane.002_None
usemtl None
s off
f 17/29/13 18/30/13 20/31/13 19/32/13
o Wall_1_Plane.001
v -4.105375 -4.012587 18.652405
v 16.630894 -4.012587 18.652405
v -4.105375 23.083618 18.366829
v 16.630894 23.083618 18.366829
vt 0.666928 0.333500
vt 0.666928 0.333634
vt 0.666833 0.333634
vt 0.666833 0.333500
vn 0.0000 0.0105 0.9999
g Wall_1_Plane.001_Material.001
usemtl Material.001
s off
f 21/33/14 22/34/14 24/35/14 23/36/14
o Roof_2_Plane.005
v -4.251091 30.795300 -9.569502
v 16.578657 30.795300 -9.569502
v -4.251091 23.054440 -17.096106
v 16.578657 23.054440 -17.096106
vt 0.666500 0.666500
vt 0.333500 0.666500
vt 0.333500 0.333500
vt 0.666500 0.333500
vn 0.0000 0.6971 -0.7170
g Roof_2_Plane.005_None
usemtl None
s off
f 25/37/15 26/38/15 28/39/15 27/40/15
o Roof_1_Plane.006
v 16.569229 30.795298 10.764866
v -4.260454 30.795301 10.816872
v 16.588020 23.054438 18.291447
v -4.241663 23.054441 18.343452
vt 0.999834 0.333167
vt 0.666833 0.333167
vt 0.666833 0.000167
vt 0.999834 0.000167
vn 0.0018 0.6971 0.7170
g Roof_1_Plane.006_None
usemtl None
s off
f 29/41/16 30/42/16 32/43/16 31/44/16
o Plane_Plane.007
v -4.288692 30.820534 10.952868
v 16.645760 30.820534 10.952868
v -4.288692 30.820534 -9.651248
v 16.645760 30.820534 -9.651248
vt 0.666500 0.333167
vt 0.333500 0.333167
vt 0.333500 0.000167
vt 0.666500 0.000167
vn 0.0000 1.0000 0.0000
g Plane_Plane.007_None
usemtl None
s off
f 33/45/17 34/46/17 36/47/17 35/48/17
o Plane.001_Plane.016
v 16.504276 30.849400 -9.601482
v 16.498304 30.849400 10.968374
v 16.463625 20.291340 -9.601494
v 16.457653 20.291340 10.968363
vt 0.333167 0.666500
vt 0.000167 0.666500
vt 0.000167 0.333500
vt 0.333167 0.333500
vn 1.0000 -0.0039 0.0003
g Plane.001_Plane.016_None
usemtl None
s off
f 37/49/18 38/50/18 40/51/18 39/52/18
o Plane.002_Plane.018
v 16.485914 30.849438 -9.601487
v 16.507072 23.091209 -17.059320
v 16.482119 20.291302 -9.601489
v 16.476015 20.291302 10.968368
vt 0.000000 0.000000
vt 1.000000 0.000000
vt 1.000000 1.000000
vt 0.000000 1.000000
vn -0.9997 -0.0208 -0.0111
g Plane.002_Plane.018_None
usemtl None
s off
f 41/53/19 42/54/19 44/55/19 43/56/19
o Plane.004_Plane.020
v 16.476017 30.849438 10.968368
v 16.454861 23.091209 18.426199
v 16.479813 20.291302 10.968369
v 16.485912 20.291302 -9.601487
vt 0.000000 0.000000
vt 1.000000 0.000000
vt 1.000000 1.000000
vt 0.000000 1.000000
vn 0.9997 -0.0208 0.0111
g Plane.004_Plane.020_None
usemtl None
s off
f 45/57/20 46/58/20 48/59/20 47/60/20
o Plane.006_Plane.026
v -4.196707 30.849400 -9.601482
v -4.202679 30.849400 10.968374
v -4.237358 20.291340 -9.601494
v -4.243330 20.291340 10.968363
vt 0.333167 0.333167
vt 0.000167 0.333167
vt 0.000167 0.000167
vt 0.333167 0.000167
vn 1.0000 -0.0039 0.0003
g Plane.006_Plane.026_None
usemtl None
s off
f 49/61/21 50/62/21 52/63/21 51/64/21
o Plane.005_Plane.025
v -4.215069 30.849438 -9.601487
v -4.193911 23.091209 -17.059320
v -4.218864 20.291302 -9.601489
v -4.224968 20.291302 10.968368
vt 0.000000 0.000000
vt 1.000000 0.000000
vt 1.000000 1.000000
vt 0.000000 1.000000
vn -0.9997 -0.0208 -0.0111
g Plane.005_Plane.025_None
usemtl None
s off
f 53/65/22 54/66/22 56/67/22 55/68/22
o Plane.003_Plane.024
v -4.224967 30.849438 10.968368
v -4.246123 23.091209 18.426199
v -4.221171 20.291302 10.968369
v -4.215070 20.291302 -9.601487
vt 0.000000 0.000000
vt 1.000000 0.000000
vt 1.000000 1.000000
vt 0.000000 1.000000
vn 0.9997 -0.0208 0.0111
g Plane.003_Plane.024_None
usemtl None
s off
f 57/69/23 58/70/23 60/71/23 59/72/23
